<svg width="160" height="299" viewBox="0 0 160 299" fill="none" xmlns="http://www.w3.org/2000/svg">
<path d="M77.223 17.5443C76.3339 18.8375 76.6615 20.6067 77.9547 21.4958C79.2479 22.3848 81.0171 22.0572 81.9062 20.764L79.5646 19.1542L77.223 17.5443ZM118.4 10.6294L120.652 8.89681C120.632 8.87072 120.611 8.84499 120.59 8.81961L118.4 10.6294ZM131.661 129.029H134.502C134.502 128.993 134.501 128.956 134.5 128.92L131.661 129.029ZM131.661 207.647H128.819C128.819 207.693 128.82 207.739 128.822 207.785L131.661 207.647ZM141.133 257.848L143.713 256.657C143.622 256.461 143.509 256.275 143.376 256.104L141.133 257.848ZM156.288 293.842V296.683C157.291 296.683 158.219 296.155 158.731 295.292C159.243 294.43 159.263 293.362 158.782 292.481L156.288 293.842ZM104.192 291C102.622 291 101.35 292.272 101.35 293.842C101.35 295.411 102.622 296.683 104.192 296.683V293.842V291ZM137.344 248.773L134.562 249.352C134.58 249.442 134.603 249.531 134.631 249.618L137.344 248.773ZM137.261 248.376L134.479 248.951L137.261 248.376ZM99.4558 194.386H96.6142C96.6142 194.41 96.6146 194.434 96.6152 194.459L99.4558 194.386ZM104.492 245.858C105.194 247.262 106.901 247.831 108.304 247.129C109.708 246.427 110.277 244.72 109.575 243.317L107.033 244.587L104.492 245.858ZM79.5646 19.1542L81.9062 20.764C85.2222 15.9406 90.9575 9.92693 97.3164 7.17519C100.442 5.82245 103.585 5.3132 106.64 5.96668C109.672 6.61526 112.936 8.47669 116.209 12.4391L118.4 10.6294L120.59 8.81961C116.665 4.06783 112.343 1.37481 107.829 0.409212C103.338 -0.551497 98.9742 0.265329 95.0594 1.95941C87.3366 5.30132 80.853 12.2642 77.223 17.5443L79.5646 19.1542ZM108.928 62.7253V59.8837C108.875 59.8837 108.821 59.8837 108.768 59.8837C108.715 59.8837 108.662 59.8837 108.609 59.8837C108.556 59.8837 108.503 59.8837 108.451 59.8837C108.398 59.8837 108.345 59.8837 108.293 59.8837C108.24 59.8837 108.188 59.8837 108.135 59.8837C108.083 59.8837 108.031 59.8837 107.979 59.8837C107.926 59.8837 107.874 59.8837 107.822 59.8837C107.77 59.8837 107.718 59.8837 107.667 59.8837C107.615 59.8837 107.563 59.8837 107.511 59.8837C107.46 59.8837 107.408 59.8837 107.357 59.8837C107.305 59.8837 107.254 59.8837 107.203 59.8837C107.151 59.8837 107.1 59.8837 107.049 59.8837C106.998 59.8837 106.947 59.8837 106.896 59.8837C106.845 59.8837 106.794 59.8837 106.743 59.8837C106.693 59.8837 106.642 59.8837 106.591 59.8837C106.541 59.8837 106.49 59.8837 106.44 59.8837C106.39 59.8837 106.339 59.8837 106.289 59.8837C106.239 59.8837 106.189 59.8837 106.139 59.8837C106.089 59.8837 106.039 59.8837 105.989 59.8837C105.939 59.8837 105.889 59.8837 105.839 59.8837C105.79 59.8837 105.74 59.8837 105.691 59.8837C105.641 59.8837 105.592 59.8837 105.542 59.8837C105.493 59.8837 105.444 59.8837 105.395 59.8837C105.345 59.8837 105.296 59.8837 105.247 59.8837C105.198 59.8837 105.15 59.8837 105.101 59.8837C105.052 59.8837 105.003 59.8837 104.955 59.8837C104.906 59.8837 104.857 59.8837 104.809 59.8837C104.761 59.8837 104.712 59.8837 104.664 59.8837C104.616 59.8837 104.567 59.8837 104.519 59.8837C104.471 59.8837 104.423 59.8837 104.375 59.8837C104.327 59.8837 104.279 59.8837 104.232 59.8837C104.184 59.8837 104.136 59.8837 104.089 59.8837C104.041 59.8837 103.994 59.8837 103.946 59.8837C103.899 59.8837 103.851 59.8837 103.804 59.8837C103.757 59.8837 103.71 59.8837 103.663 59.8837C103.616 59.8837 103.569 59.8837 103.522 59.8837C103.475 59.8837 103.428 59.8837 103.381 59.8837C103.335 59.8837 103.288 59.8837 103.242 59.8837C103.195 59.8837 103.148 59.8837 103.102 59.8837C103.056 59.8837 103.009 59.8837 102.963 59.8837C102.917 59.8837 102.871 59.8837 102.825 59.8837C102.779 59.8837 102.733 59.8837 102.687 59.8837C102.641 59.8837 102.595 59.8837 102.55 59.8837C102.504 59.8837 102.458 59.8837 102.413 59.8837C102.367 59.8837 102.322 59.8837 102.277 59.8837C102.231 59.8837 102.186 59.8837 102.141 59.8837C102.096 59.8837 102.05 59.8837 102.005 59.8837C101.96 59.8837 101.915 59.8837 101.871 59.8837C101.826 59.8837 101.781 59.8837 101.736 59.8837C101.692 59.8837 101.647 59.8837 101.603 59.8837C101.558 59.8837 101.514 59.8837 101.469 59.8837C101.425 59.8837 101.381 59.8837 101.336 59.8837C101.292 59.8837 101.248 59.8837 101.204 59.8837C101.16 59.8837 101.116 59.8837 101.072 59.8837C101.029 59.8837 100.985 59.8837 100.941 59.8837C100.898 59.8837 100.854 59.8837 100.81 59.8837C100.767 59.8837 100.723 59.8837 100.68 59.8837C100.637 59.8837 100.594 59.8837 100.55 59.8837C100.507 59.8837 100.464 59.8837 100.421 59.8837C100.378 59.8837 100.335 59.8837 100.292 59.8837C100.249 59.8837 100.207 59.8837 100.164 59.8837C100.121 59.8837 100.079 59.8837 100.036 59.8837C99.9937 59.8837 99.9513 59.8837 99.909 59.8837C99.8666 59.8837 99.8244 59.8837 99.7822 59.8837C99.74 59.8837 99.6979 59.8837 99.6559 59.8837C99.6138 59.8837 99.5719 59.8837 99.5301 59.8837C99.4882 59.8837 99.4464 59.8837 99.4047 59.8837C99.363 59.8837 99.3214 59.8837 99.2799 59.8837C99.2384 59.8837 99.1969 59.8837 99.1556 59.8837C99.1142 59.8837 99.0729 59.8837 99.0317 59.8837C98.9905 59.8837 98.9494 59.8837 98.9083 59.8837C98.8673 59.8837 98.8263 59.8837 98.7854 59.8837C98.7446 59.8837 98.7038 59.8837 98.663 59.8837C98.6223 59.8837 98.5817 59.8837 98.5411 59.8837C98.5006 59.8837 98.4601 59.8837 98.4197 59.8837C98.3793 59.8837 98.339 59.8837 98.2988 59.8837C98.2585 59.8837 98.2184 59.8837 98.1783 59.8837C98.1382 59.8837 98.0982 59.8837 98.0583 59.8837C98.0184 59.8837 97.9786 59.8837 97.9388 59.8837C97.8991 59.8837 97.8594 59.8837 97.8198 59.8837C97.7802 59.8837 97.7407 59.8837 97.7013 59.8837C97.6618 59.8837 97.6225 59.8837 97.5832 59.8837C97.5439 59.8837 97.5047 59.8837 97.4656 59.8837C97.4265 59.8837 97.3874 59.8837 97.3485 59.8837C97.3095 59.8837 97.2706 59.8837 97.2318 59.8837C97.193 59.8837 97.1543 59.8837 97.1157 59.8837C97.077 59.8837 97.0385 59.8837 97 59.8837C96.9615 59.8837 96.9231 59.8837 96.8848 59.8837C96.8465 59.8837 96.8082 59.8837 96.77 59.8837C96.7319 59.8837 96.6938 59.8837 96.6558 59.8837C96.6177 59.8837 96.5798 59.8837 96.542 59.8837C96.5041 59.8837 96.4663 59.8837 96.4286 59.8837C96.3909 59.8837 96.3533 59.8837 96.3158 59.8837C96.2782 59.8837 96.2407 59.8837 96.2034 59.8837C96.166 59.8837 96.1287 59.8837 96.0914 59.8837C96.0542 59.8837 96.017 59.8837 95.98 59.8837C95.9429 59.8837 95.9059 59.8837 95.869 59.8837C95.832 59.8837 95.7952 59.8837 95.7584 59.8837C95.7216 59.8837 95.685 59.8837 95.6483 59.8837C95.6117 59.8837 95.5752 59.8837 95.5387 59.8837C95.5023 59.8837 95.4659 59.8837 95.4296 59.8837C95.3933 59.8837 95.357 59.8837 95.3209 59.8837C95.2847 59.8837 95.2487 59.8837 95.2127 59.8837C95.1767 59.8837 95.1407 59.8837 95.1049 59.8837C95.069 59.8837 95.0333 59.8837 94.9976 59.8837C94.9619 59.8837 94.9263 59.8837 94.8907 59.8837C94.8552 59.8837 94.8197 59.8837 94.7843 59.8837C94.7489 59.8837 94.7136 59.8837 94.6784 59.8837C94.6431 59.8837 94.608 59.8837 94.5729 59.8837C94.5378 59.8837 94.5028 59.8837 94.4678 59.8837C94.4329 59.8837 94.398 59.8837 94.3633 59.8837C94.3285 59.8837 94.2938 59.8837 94.2591 59.8837C94.2245 59.8837 94.1899 59.8837 94.1554 59.8837C94.121 59.8837 94.0865 59.8837 94.0522 59.8837C94.0179 59.8837 93.9836 59.8837 93.9494 59.8837C93.9152 59.8837 93.8811 59.8837 93.8471 59.8837C93.8131 59.8837 93.7791 59.8837 93.7452 59.8837C93.7113 59.8837 93.6775 59.8837 93.6438 59.8837C93.61 59.8837 93.5764 59.8837 93.5428 59.8837C93.5092 59.8837 93.4757 59.8837 93.4422 59.8837C93.4088 59.8837 93.3754 59.8837 93.3421 59.8837C93.3088 59.8837 93.2756 59.8837 93.2425 59.8837C93.2093 59.8837 93.1762 59.8837 93.1432 59.8837C93.1102 59.8837 93.0773 59.8837 93.0445 59.8837C93.0116 59.8837 92.9788 59.8837 92.9461 59.8837C92.9134 59.8837 92.8808 59.8837 92.8482 59.8837C92.8157 59.8837 92.7832 59.8837 92.7508 59.8837C92.7184 59.8837 92.686 59.8837 92.6537 59.8837C92.6215 59.8837 92.5893 59.8837 92.5572 59.8837C92.525 59.8837 92.493 59.8837 92.461 59.8837C92.429 59.8837 92.3971 59.8837 92.3653 59.8837C92.3335 59.8837 92.3017 59.8837 92.27 59.8837C92.2383 59.8837 92.2067 59.8837 92.1752 59.8837C92.1436 59.8837 92.1122 59.8837 92.0808 59.8837C92.0494 59.8837 92.0181 59.8837 91.9868 59.8837C91.9555 59.8837 91.9244 59.8837 91.8933 59.8837C91.8621 59.8837 91.8311 59.8837 91.8001 59.8837C91.7692 59.8837 91.7383 59.8837 91.7075 59.8837C91.6766 59.8837 91.6459 59.8837 91.6152 59.8837C91.5845 59.8837 91.5539 59.8837 91.5234 59.8837C91.4928 59.8837 91.4624 59.8837 91.432 59.8837C91.4016 59.8837 91.3712 59.8837 91.341 59.8837C91.3107 59.8837 91.2805 59.8837 91.2504 59.8837C91.2203 59.8837 91.1903 59.8837 91.1603 59.8837C91.1303 59.8837 91.1004 59.8837 91.0706 59.8837C91.0408 59.8837 91.011 59.8837 90.9813 59.8837C90.9516 59.8837 90.922 59.8837 90.8925 59.8837C90.8629 59.8837 90.8334 59.8837 90.804 59.8837C90.7746 59.8837 90.7453 59.8837 90.716 59.8837C90.6867 59.8837 90.6575 59.8837 90.6284 59.8837C90.5993 59.8837 90.5702 59.8837 90.5412 59.8837C90.5122 59.8837 90.4833 59.8837 90.4544 59.8837C90.4256 59.8837 90.3968 59.8837 90.3681 59.8837C90.3394 59.8837 90.3107 59.8837 90.2822 59.8837C90.2536 59.8837 90.2251 59.8837 90.1966 59.8837C90.1682 59.8837 90.1398 59.8837 90.1115 59.8837C90.0832 59.8837 90.055 59.8837 90.0268 59.8837C89.9987 59.8837 89.9706 59.8837 89.9426 59.8837C89.9145 59.8837 89.8866 59.8837 89.8587 59.8837C89.8308 59.8837 89.803 59.8837 89.7752 59.8837C89.7475 59.8837 89.7198 59.8837 89.6922 59.8837C89.6646 59.8837 89.637 59.8837 89.6095 59.8837C89.5821 59.8837 89.5547 59.8837 89.5273 59.8837C89.5 59.8837 89.4727 59.8837 89.4455 59.8837C89.4183 59.8837 89.3911 59.8837 89.3641 59.8837C89.337 59.8837 89.31 59.8837 89.2831 59.8837C89.2561 59.8837 89.2293 59.8837 89.2025 59.8837C89.1756 59.8837 89.1489 59.8837 89.1222 59.8837C89.0956 59.8837 89.069 59.8837 89.0424 59.8837C89.0159 59.8837 88.9894 59.8837 88.963 59.8837C88.9366 59.8837 88.9103 59.8837 88.884 59.8837C88.8578 59.8837 88.8316 59.8837 88.8054 59.8837C88.7793 59.8837 88.7532 59.8837 88.7272 59.8837C88.7012 59.8837 88.6753 59.8837 88.6494 59.8837C88.6236 59.8837 88.5978 59.8837 88.572 59.8837C88.5463 59.8837 88.5206 59.8837 88.495 59.8837C88.4694 59.8837 88.4439 59.8837 88.4184 59.8837C88.3929 59.8837 88.3675 59.8837 88.3422 59.8837C88.3169 59.8837 88.2916 59.8837 88.2664 59.8837C88.2412 59.8837 88.216 59.8837 88.1909 59.8837C88.1659 59.8837 88.1408 59.8837 88.1159 59.8837C88.091 59.8837 88.0661 59.8837 88.0413 59.8837C88.0164 59.8837 87.9917 59.8837 87.967 59.8837C87.9423 59.8837 87.9177 59.8837 87.8931 59.8837C87.8686 59.8837 87.8441 59.8837 87.8197 59.8837C87.7952 59.8837 87.7709 59.8837 87.7466 59.8837C87.7223 59.8837 87.698 59.8837 87.6739 59.8837C87.6497 59.8837 87.6256 59.8837 87.6015 59.8837C87.5775 59.8837 87.5535 59.8837 87.5296 59.8837C87.5057 59.8837 87.4818 59.8837 87.4581 59.8837C87.4343 59.8837 87.4106 59.8837 87.3869 59.8837C87.3632 59.8837 87.3396 59.8837 87.3161 59.8837C87.2926 59.8837 87.2691 59.8837 87.2457 59.8837C87.2223 59.8837 87.199 59.8837 87.1757 59.8837C87.1524 59.8837 87.1292 59.8837 87.1061 59.8837C87.0829 59.8837 87.0598 59.8837 87.0368 59.8837C87.0138 59.8837 86.9908 59.8837 86.9679 59.8837C86.945 59.8837 86.9222 59.8837 86.8994 59.8837C86.8767 59.8837 86.8539 59.8837 86.8313 59.8837C86.8087 59.8837 86.7861 59.8837 86.7636 59.8837C86.741 59.8837 86.7186 59.8837 86.6962 59.8837C86.6738 59.8837 86.6514 59.8837 86.6292 59.8837C86.6069 59.8837 86.5847 59.8837 86.5626 59.8837C86.5404 59.8837 86.5183 59.8837 86.4963 59.8837C86.4743 59.8837 86.4523 59.8837 86.4304 59.8837C86.4085 59.8837 86.3867 59.8837 86.3649 59.8837C86.3431 59.8837 86.3214 59.8837 86.2998 59.8837C86.2781 59.8837 86.2565 59.8837 86.235 59.8837C86.2135 59.8837 86.192 59.8837 86.1706 59.8837C86.1492 59.8837 86.1278 59.8837 86.1065 59.8837C86.0853 59.8837 86.064 59.8837 86.0429 59.8837C86.0217 59.8837 86.0006 59.8837 85.9796 59.8837C85.9585 59.8837 85.9375 59.8837 85.9166 59.8837C85.8957 59.8837 85.8748 59.8837 85.854 59.8837C85.8332 59.8837 85.8125 59.8837 85.7918 59.8837C85.7712 59.8837 85.7505 59.8837 85.73 59.8837C85.7094 59.8837 85.6889 59.8837 85.6685 59.8837C85.6481 59.8837 85.6277 59.8837 85.6074 59.8837C85.587 59.8837 85.5668 59.8837 85.5466 59.8837C85.5264 59.8837 85.5063 59.8837 85.4862 59.8837C85.4661 59.8837 85.4461 59.8837 85.4261 59.8837C85.4062 59.8837 85.3863 59.8837 85.3664 59.8837C85.3466 59.8837 85.3268 59.8837 85.3071 59.8837C85.2874 59.8837 85.2677 59.8837 85.2481 59.8837C85.2285 59.8837 85.2089 59.8837 85.1895 59.8837C85.17 59.8837 85.1505 59.8837 85.1312 59.8837C85.1118 59.8837 85.0925 59.8837 85.0733 59.8837C85.054 59.8837 85.0348 59.8837 85.0157 59.8837C84.9965 59.8837 84.9775 59.8837 84.9585 59.8837C84.9394 59.8837 84.9205 59.8837 84.9016 59.8837C84.8827 59.8837 84.8638 59.8837 84.8451 59.8837C84.8263 59.8837 84.8075 59.8837 84.7889 59.8837C84.7702 59.8837 84.7516 59.8837 84.733 59.8837C84.7145 59.8837 84.696 59.8837 84.6776 59.8837C84.6591 59.8837 84.6407 59.8837 84.6224 59.8837C84.6041 59.8837 84.5858 59.8837 84.5676 59.8837C84.5494 59.8837 84.5313 59.8837 84.5132 59.8837C84.4951 59.8837 84.4771 59.8837 84.4591 59.8837C84.4411 59.8837 84.4232 59.8837 84.4053 59.8837C84.3874 59.8837 84.3696 59.8837 84.3519 59.8837C84.3341 59.8837 84.3164 59.8837 84.2988 59.8837C84.2812 59.8837 84.2636 59.8837 84.2461 59.8837C84.2285 59.8837 84.2111 59.8837 84.1937 59.8837C84.1762 59.8837 84.1589 59.8837 84.1416 59.8837C84.1243 59.8837 84.1071 59.8837 84.0899 59.8837C84.0727 59.8837 84.0555 59.8837 84.0385 59.8837C84.0214 59.8837 84.0044 59.8837 83.9874 59.8837C83.9705 59.8837 83.9535 59.8837 83.9367 59.8837C83.9198 59.8837 83.903 59.8837 83.8863 59.8837C83.8696 59.8837 83.8529 59.8837 83.8362 59.8837C83.8196 59.8837 83.803 59.8837 83.7865 59.8837C83.77 59.8837 83.7535 59.8837 83.7371 59.8837C83.7207 59.8837 83.7044 59.8837 83.6881 59.8837C83.6718 59.8837 83.6555 59.8837 83.6393 59.8837C83.6231 59.8837 83.607 59.8837 83.5909 59.8837C83.5748 59.8837 83.5588 59.8837 83.5428 59.8837C83.5269 59.8837 83.511 59.8837 83.4951 59.8837C83.4792 59.8837 83.4634 59.8837 83.4477 59.8837C83.4319 59.8837 83.4162 59.8837 83.4006 59.8837C83.3849 59.8837 83.3693 59.8837 83.3538 59.8837C83.3382 59.8837 83.3228 59.8837 83.3073 59.8837C83.2919 59.8837 83.2765 59.8837 83.2612 59.8837C83.2459 59.8837 83.2306 59.8837 83.2154 59.8837C83.2002 59.8837 83.185 59.8837 83.1699 59.8837C83.1548 59.8837 83.1397 59.8837 83.1247 59.8837C83.1097 59.8837 83.0948 59.8837 83.0799 59.8837C83.065 59.8837 83.0501 59.8837 83.0353 59.8837C83.0206 59.8837 83.0058 59.8837 82.9911 59.8837C82.9764 59.8837 82.9618 59.8837 82.9472 59.8837C82.9327 59.8837 82.9181 59.8837 82.9036 59.8837C82.8892 59.8837 82.8747 59.8837 82.8604 59.8837C82.846 59.8837 82.8317 59.8837 82.8174 59.8837C82.8032 59.8837 82.7889 59.8837 82.7748 59.8837C82.7606 59.8837 82.7465 59.8837 82.7324 59.8837C82.7184 59.8837 82.7044 59.8837 82.6904 59.8837C82.6765 59.8837 82.6626 59.8837 82.6487 59.8837C82.6349 59.8837 82.6211 59.8837 82.6073 59.8837C82.5936 59.8837 82.5799 59.8837 82.5662 59.8837C82.5526 59.8837 82.539 59.8837 82.5254 59.8837C82.5119 59.8837 82.4984 59.8837 82.485 59.8837C82.4715 59.8837 82.4581 59.8837 82.4448 59.8837C82.4314 59.8837 82.4182 59.8837 82.4049 59.8837C82.3917 59.8837 82.3785 59.8837 82.3654 59.8837C82.3522 59.8837 82.3391 59.8837 82.3261 59.8837C82.3131 59.8837 82.3001 59.8837 82.2871 59.8837C82.2742 59.8837 82.2613 59.8837 82.2485 59.8837C82.2357 59.8837 82.2229 59.8837 82.2101 59.8837C82.1974 59.8837 82.1847 59.8837 82.1721 59.8837C82.1594 59.8837 82.1469 59.8837 82.1343 59.8837C82.1218 59.8837 82.1093 59.8837 82.0969 59.8837C82.0844 59.8837 82.072 59.8837 82.0597 59.8837C82.0474 59.8837 82.0351 59.8837 82.0228 59.8837C82.0106 59.8837 81.9984 59.8837 81.9863 59.8837C81.9741 59.8837 81.962 59.8837 81.95 59.8837C81.938 59.8837 81.926 59.8837 81.914 59.8837C81.9021 59.8837 81.8902 59.8837 81.8783 59.8837C81.8665 59.8837 81.8547 59.8837 81.8429 59.8837C81.8312 59.8837 81.8195 59.8837 81.8078 59.8837C81.7962 59.8837 81.7846 59.8837 81.773 59.8837C81.7615 59.8837 81.75 59.8837 81.7385 59.8837C81.727 59.8837 81.7156 59.8837 81.7043 59.8837C81.6929 59.8837 81.6816 59.8837 81.6703 59.8837C81.659 59.8837 81.6478 59.8837 81.6367 59.8837C81.6255 59.8837 81.6144 59.8837 81.6033 59.8837C81.5922 59.8837 81.5812 59.8837 81.5702 59.8837C81.5592 59.8837 81.5483 59.8837 81.5374 59.8837C81.5265 59.8837 81.5157 59.8837 81.5049 59.8837C81.4941 59.8837 81.4833 59.8837 81.4726 59.8837C81.4619 59.8837 81.4513 59.8837 81.4407 59.8837C81.4301 59.8837 81.4195 59.8837 81.409 59.8837C81.3985 59.8837 81.388 59.8837 81.3776 59.8837C81.3672 59.8837 81.3568 59.8837 81.3465 59.8837C81.3362 59.8837 81.3259 59.8837 81.3156 59.8837C81.3054 59.8837 81.2952 59.8837 81.2851 59.8837C81.2749 59.8837 81.2648 59.8837 81.2548 59.8837C81.2447 59.8837 81.2347 59.8837 81.2248 59.8837C81.2148 59.8837 81.2049 59.8837 81.1951 59.8837C81.1852 59.8837 81.1754 59.8837 81.1656 59.8837C81.1558 59.8837 81.1461 59.8837 81.1364 59.8837C81.1267 59.8837 81.1171 59.8837 81.1075 59.8837C81.0979 59.8837 81.0883 59.8837 81.0788 59.8837C81.0693 59.8837 81.0599 59.8837 81.0505 59.8837C81.0411 59.8837 81.0317 59.8837 81.0224 59.8837C81.013 59.8837 81.0038 59.8837 80.9945 59.8837C80.9853 59.8837 80.9761 59.8837 80.967 59.8837C80.9578 59.8837 80.9487 59.8837 80.9397 59.8837C80.9306 59.8837 80.9216 59.8837 80.9126 59.8837C80.9037 59.8837 80.8947 59.8837 80.8859 59.8837C80.877 59.8837 80.8682 59.8837 80.8594 59.8837C80.8506 59.8837 80.8418 59.8837 80.8331 59.8837C80.8244 59.8837 80.8158 59.8837 80.8071 59.8837C80.7985 59.8837 80.79 59.8837 80.7814 59.8837C80.7729 59.8837 80.7644 59.8837 80.756 59.8837C80.7475 59.8837 80.7391 59.8837 80.7308 59.8837C80.7224 59.8837 80.7141 59.8837 80.7058 59.8837C80.6976 59.8837 80.6893 59.8837 80.6812 59.8837C80.673 59.8837 80.6648 59.8837 80.6567 59.8837C80.6486 59.8837 80.6406 59.8837 80.6326 59.8837C80.6246 59.8837 80.6166 59.8837 80.6087 59.8837C80.6007 59.8837 80.5929 59.8837 80.585 59.8837C80.5772 59.8837 80.5694 59.8837 80.5616 59.8837C80.5539 59.8837 80.5462 59.8837 80.5385 59.8837C80.5308 59.8837 80.5232 59.8837 80.5156 59.8837C80.508 59.8837 80.5005 59.8837 80.4929 59.8837C80.4854 59.8837 80.478 59.8837 80.4706 59.8837C80.4631 59.8837 80.4558 59.8837 80.4484 59.8837C80.4411 59.8837 80.4338 59.8837 80.4265 59.8837C80.4193 59.8837 80.4121 59.8837 80.4049 59.8837C80.3977 59.8837 80.3906 59.8837 80.3835 59.8837C80.3764 59.8837 80.3693 59.8837 80.3623 59.8837C80.3553 59.8837 80.3484 59.8837 80.3414 59.8837C80.3345 59.8837 80.3276 59.8837 80.3208 59.8837C80.3139 59.8837 80.3071 59.8837 80.3004 59.8837C80.2936 59.8837 80.2869 59.8837 80.2802 59.8837C80.2735 59.8837 80.2669 59.8837 80.2602 59.8837C80.2536 59.8837 80.2471 59.8837 80.2406 59.8837C80.234 59.8837 80.2276 59.8837 80.2211 59.8837C80.2147 59.8837 80.2083 59.8837 80.2019 59.8837C80.1955 59.8837 80.1892 59.8837 80.1829 59.8837C80.1766 59.8837 80.1704 59.8837 80.1642 59.8837C80.158 59.8837 80.1518 59.8837 80.1457 59.8837C80.1396 59.8837 80.1335 59.8837 80.1274 59.8837C80.1214 59.8837 80.1154 59.8837 80.1094 59.8837C80.1034 59.8837 80.0975 59.8837 80.0916 59.8837C80.0857 59.8837 80.0799 59.8837 80.0741 59.8837C80.0682 59.8837 80.0625 59.8837 80.0567 59.8837C80.051 59.8837 80.0453 59.8837 80.0396 59.8837C80.034 59.8837 80.0283 59.8837 80.0228 59.8837C80.0172 59.8837 80.0116 59.8837 80.0061 59.8837C80.0006 59.8837 79.9952 59.8837 79.9897 59.8837C79.9843 59.8837 79.9789 59.8837 79.9735 59.8837C79.9682 59.8837 79.9629 59.8837 79.9576 59.8837C79.9523 59.8837 79.9471 59.8837 79.9419 59.8837C79.9367 59.8837 79.9315 59.8837 79.9264 59.8837C79.9212 59.8837 79.9162 59.8837 79.9111 59.8837C79.906 59.8837 79.901 59.8837 79.8961 59.8837C79.8911 59.8837 79.8861 59.8837 79.8812 59.8837C79.8763 59.8837 79.8715 59.8837 79.8666 59.8837C79.8618 59.8837 79.857 59.8837 79.8522 59.8837C79.8475 59.8837 79.8428 59.8837 79.8381 59.8837C79.8334 59.8837 79.8287 59.8837 79.8241 59.8837C79.8195 59.8837 79.8149 59.8837 79.8104 59.8837C79.8059 59.8837 79.8014 59.8837 79.7969 59.8837C79.7924 59.8837 79.788 59.8837 79.7836 59.8837C79.7792 59.8837 79.7749 59.8837 79.7705 59.8837C79.7662 59.8837 79.7619 59.8837 79.7577 59.8837C79.7534 59.8837 79.7492 59.8837 79.745 59.8837C79.7409 59.8837 79.7367 59.8837 79.7326 59.8837C79.7285 59.8837 79.7244 59.8837 79.7204 59.8837C79.7164 59.8837 79.7124 59.8837 79.7084 59.8837C79.7044 59.8837 79.7005 59.8837 79.6966 59.8837C79.6927 59.8837 79.6888 59.8837 79.685 59.8837C79.6812 59.8837 79.6774 59.8837 79.6736 59.8837C79.6699 59.8837 79.6661 59.8837 79.6625 59.8837C79.6588 59.8837 79.6551 59.8837 79.6515 59.8837C79.6479 59.8837 79.6443 59.8837 79.6407 59.8837C79.6372 59.8837 79.6337 59.8837 79.6302 59.8837C79.6267 59.8837 79.6233 59.8837 79.6199 59.8837C79.6164 59.8837 79.6131 59.8837 79.6097 59.8837C79.6064 59.8837 79.6031 59.8837 79.5998 59.8837C79.5965 59.8837 79.5933 59.8837 79.59 59.8837C79.5868 59.8837 79.5837 59.8837 79.5805 59.8837C79.5774 59.8837 79.5743 59.8837 79.5712 59.8837C79.5681 59.8837 79.5651 59.8837 79.562 59.8837C79.559 59.8837 79.5561 59.8837 79.5531 59.8837C79.5502 59.8837 79.5473 59.8837 79.5444 59.8837C79.5415 59.8837 79.5387 59.8837 79.5358 59.8837C79.533 59.8837 79.5302 59.8837 79.5275 59.8837C79.5248 59.8837 79.522 59.8837 79.5194 59.8837C79.5167 59.8837 79.514 59.8837 79.5114 59.8837C79.5088 59.8837 79.5062 59.8837 79.5036 59.8837C79.5011 59.8837 79.4986 59.8837 79.4961 59.8837C79.4936 59.8837 79.4911 59.8837 79.4887 59.8837C79.4863 59.8837 79.4839 59.8837 79.4815 59.8837C79.4792 59.8837 79.4768 59.8837 79.4745 59.8837C79.4722 59.8837 79.47 59.8837 79.4677 59.8837C79.4655 59.8837 79.4633 59.8837 79.4611 59.8837C79.4589 59.8837 79.4568 59.8837 79.4547 59.8837C79.4526 59.8837 79.4505 59.8837 79.4484 59.8837C79.4464 59.8837 79.4444 59.8837 79.4424 59.8837C79.4404 59.8837 79.4384 59.8837 79.4365 59.8837C79.4346 59.8837 79.4327 59.8837 79.4308 59.8837C79.429 59.8837 79.4271 59.8837 79.4253 59.8837C79.4235 59.8837 79.4217 59.8837 79.42 59.8837C79.4183 59.8837 79.4165 59.8837 79.4149 59.8837C79.4132 59.8837 79.4115 59.8837 79.4099 59.8837C79.4083 59.8837 79.4067 59.8837 79.4051 59.8837C79.4036 59.8837 79.402 59.8837 79.4005 59.8837C79.399 59.8837 79.3976 59.8837 79.3961 59.8837C79.3947 59.8837 79.3932 59.8837 79.3919 59.8837C79.3905 59.8837 79.3891 59.8837 79.3878 59.8837C79.3865 59.8837 79.3852 59.8837 79.3839 59.8837C79.3826 59.8837 79.3814 59.8837 79.3802 59.8837C79.379 59.8837 79.3778 59.8837 79.3766 59.8837C79.3755 59.8837 79.3744 59.8837 79.3733 59.8837C79.3722 59.8837 79.3711 59.8837 79.3701 59.8837C79.369 59.8837 79.368 59.8837 79.367 59.8837C79.3661 59.8837 79.3651 59.8837 79.3642 59.8837C79.3633 59.8837 79.3624 59.8837 79.3615 59.8837C79.3606 59.8837 79.3598 59.8837 79.359 59.8837C79.3582 59.8837 79.3574 59.8837 79.3566 59.8837C79.3559 59.8837 79.3551 59.8837 79.3544 59.8837C79.3537 59.8837 79.3531 59.8837 79.3524 59.8837C79.3518 59.8837 79.3512 59.8837 79.3506 59.8837C79.35 59.8837 79.3494 59.8837 79.3489 59.8837C79.3483 59.8837 79.3478 59.8837 79.3473 59.8837C79.3469 59.8837 79.3464 59.8837 79.346 59.8837C79.3456 59.8837 79.3452 59.8837 79.3448 59.8837C79.3444 59.8837 79.3441 59.8837 79.3437 59.8837C79.3434 59.8837 79.3431 59.8837 79.3429 59.8837C79.3426 59.8837 79.3424 59.8837 79.3421 59.8837C79.3419 59.8837 79.3417 59.8837 79.3416 59.8837C79.3414 59.8837 79.3413 59.8837 79.3412 59.8837C79.3411 59.8837 79.341 59.8837 79.3409 59.8837C79.3409 59.8837 79.3408 59.8837 79.3408 59.8837C79.3408 62.7253 79.3408 65.5669 79.3409 65.5669C79.3409 65.5669 79.341 65.5669 79.3411 65.5669C79.3412 65.5669 79.3413 65.5669 79.3415 65.5669C79.3416 65.5669 79.3418 65.5669 79.342 65.5669C79.3422 65.5669 79.3424 65.5669 79.3427 65.5669C79.3429 65.5669 79.3432 65.5669 79.3435 65.5669C79.3438 65.5669 79.3441 65.5669 79.3444 65.5669C79.3448 65.5669 79.3452 65.5669 79.3456 65.5669C79.346 65.5669 79.3464 65.5669 79.3468 65.5669C79.3473 65.5669 79.3477 65.5669 79.3482 65.5669C79.3487 65.5669 79.3493 65.5669 79.3498 65.5669C79.3503 65.5669 79.3509 65.5669 79.3515 65.5669C79.3521 65.5669 79.3527 65.5669 79.3534 65.5669C79.354 65.5669 79.3547 65.5669 79.3553 65.5669C79.356 65.5669 79.3567 65.5669 79.3575 65.5669C79.3582 65.5669 79.359 65.5669 79.3598 65.5669C79.3605 65.5669 79.3614 65.5669 79.3622 65.5669C79.363 65.5669 79.3639 65.5669 79.3647 65.5669C79.3656 65.5669 79.3665 65.5669 79.3674 65.5669C79.3684 65.5669 79.3693 65.5669 79.3703 65.5669C79.3712 65.5669 79.3722 65.5669 79.3732 65.5669C79.3743 65.5669 79.3753 65.5669 79.3764 65.5669C79.3774 65.5669 79.3785 65.5669 79.3796 65.5669C79.3807 65.5669 79.3818 65.5669 79.383 65.5669C79.3841 65.5669 79.3853 65.5669 79.3865 65.5669C79.3877 65.5669 79.3889 65.5669 79.3901 65.5669C79.3914 65.5669 79.3926 65.5669 79.3939 65.5669C79.3952 65.5669 79.3965 65.5669 79.3978 65.5669C79.3992 65.5669 79.4005 65.5669 79.4019 65.5669C79.4032 65.5669 79.4046 65.5669 79.4061 65.5669C79.4075 65.5669 79.4089 65.5669 79.4104 65.5669C79.4118 65.5669 79.4133 65.5669 79.4148 65.5669C79.4163 65.5669 79.4178 65.5669 79.4193 65.5669C79.4209 65.5669 79.4224 65.5669 79.424 65.5669C79.4256 65.5669 79.4272 65.5669 79.4288 65.5669C79.4304 65.5669 79.4321 65.5669 79.4338 65.5669C79.4354 65.5669 79.4371 65.5669 79.4388 65.5669C79.4405 65.5669 79.4422 65.5669 79.444 65.5669C79.4457 65.5669 79.4475 65.5669 79.4493 65.5669C79.4511 65.5669 79.4529 65.5669 79.4547 65.5669C79.4565 65.5669 79.4584 65.5669 79.4603 65.5669C79.4621 65.5669 79.464 65.5669 79.4659 65.5669C79.4678 65.5669 79.4697 65.5669 79.4717 65.5669C79.4736 65.5669 79.4756 65.5669 79.4776 65.5669C79.4796 65.5669 79.4816 65.5669 79.4836 65.5669C79.4856 65.5669 79.4877 65.5669 79.4897 65.5669C79.4918 65.5669 79.4939 65.5669 79.496 65.5669C79.4981 65.5669 79.5002 65.5669 79.5023 65.5669C79.5045 65.5669 79.5066 65.5669 79.5088 65.5669C79.511 65.5669 79.5132 65.5669 79.5154 65.5669C79.5176 65.5669 79.5198 65.5669 79.5221 65.5669C79.5243 65.5669 79.5266 65.5669 79.5289 65.5669C79.5312 65.5669 79.5335 65.5669 79.5358 65.5669C79.5381 65.5669 79.5405 65.5669 79.5428 65.5669C79.5452 65.5669 79.5476 65.5669 79.55 65.5669C79.5524 65.5669 79.5548 65.5669 79.5572 65.5669C79.5596 65.5669 79.5621 65.5669 79.5646 65.5669V62.7253V59.8837C79.5621 59.8837 79.5596 59.8837 79.5572 59.8837C79.5548 59.8837 79.5524 59.8837 79.55 59.8837C79.5476 59.8837 79.5452 59.8837 79.5428 59.8837C79.5405 59.8837 79.5381 59.8837 79.5358 59.8837C79.5335 59.8837 79.5312 59.8837 79.5289 59.8837C79.5266 59.8837 79.5243 59.8837 79.5221 59.8837C79.5198 59.8837 79.5176 59.8837 79.5154 59.8837C79.5132 59.8837 79.511 59.8837 79.5088 59.8837C79.5066 59.8837 79.5045 59.8837 79.5023 59.8837C79.5002 59.8837 79.4981 59.8837 79.496 59.8837C79.4939 59.8837 79.4918 59.8837 79.4897 59.8837C79.4877 59.8837 79.4856 59.8837 79.4836 59.8837C79.4816 59.8837 79.4796 59.8837 79.4776 59.8837C79.4756 59.8837 79.4736 59.8837 79.4717 59.8837C79.4697 59.8837 79.4678 59.8837 79.4659 59.8837C79.464 59.8837 79.4621 59.8837 79.4603 59.8837C79.4584 59.8837 79.4565 59.8837 79.4547 59.8837C79.4529 59.8837 79.4511 59.8837 79.4493 59.8837C79.4475 59.8837 79.4457 59.8837 79.444 59.8837C79.4422 59.8837 79.4405 59.8837 79.4388 59.8837C79.4371 59.8837 79.4354 59.8837 79.4338 59.8837C79.4321 59.8837 79.4304 59.8837 79.4288 59.8837C79.4272 59.8837 79.4256 59.8837 79.424 59.8837C79.4224 59.8837 79.4209 59.8837 79.4193 59.8837C79.4178 59.8837 79.4163 59.8837 79.4148 59.8837C79.4133 59.8837 79.4118 59.8837 79.4104 59.8837C79.4089 59.8837 79.4075 59.8837 79.4061 59.8837C79.4046 59.8837 79.4032 59.8837 79.4019 59.8837C79.4005 59.8837 79.3992 59.8837 79.3978 59.8837C79.3965 59.8837 79.3952 59.8837 79.3939 59.8837C79.3926 59.8837 79.3914 59.8837 79.3901 59.8837C79.3889 59.8837 79.3877 59.8837 79.3865 59.8837C79.3853 59.8837 79.3841 59.8837 79.383 59.8837C79.3818 59.8837 79.3807 59.8837 79.3796 59.8837C79.3785 59.8837 79.3774 59.8837 79.3764 59.8837C79.3753 59.8837 79.3743 59.8837 79.3732 59.8837C79.3722 59.8837 79.3712 59.8837 79.3703 59.8837C79.3693 59.8837 79.3684 59.8837 79.3674 59.8837C79.3665 59.8837 79.3656 59.8837 79.3647 59.8837C79.3639 59.8837 79.363 59.8837 79.3622 59.8837C79.3614 59.8837 79.3605 59.8837 79.3598 59.8837C79.359 59.8837 79.3582 59.8837 79.3575 59.8837C79.3567 59.8837 79.356 59.8837 79.3553 59.8837C79.3547 59.8837 79.354 59.8837 79.3534 59.8837C79.3527 59.8837 79.3521 59.8837 79.3515 59.8837C79.3509 59.8837 79.3503 59.8837 79.3498 59.8837C79.3493 59.8837 79.3487 59.8837 79.3482 59.8837C79.3477 59.8837 79.3473 59.8837 79.3468 59.8837C79.3464 59.8837 79.346 59.8837 79.3456 59.8837C79.3452 59.8837 79.3448 59.8837 79.3444 59.8837C79.3441 59.8837 79.3438 59.8837 79.3435 59.8837C79.3432 59.8837 79.3429 59.8837 79.3427 59.8837C79.3424 59.8837 79.3422 59.8837 79.342 59.8837C79.3418 59.8837 79.3416 59.8837 79.3415 59.8837C79.3413 59.8837 79.3412 59.8837 79.3411 59.8837C79.341 59.8837 79.3409 59.8837 79.3409 59.8837C79.3408 59.8837 79.3408 62.7253 79.3408 65.5669C79.3408 65.5669 79.3409 65.5669 79.3409 65.5669C79.341 65.5669 79.3411 65.5669 79.3412 65.5669C79.3413 65.5669 79.3414 65.5669 79.3416 65.5669C79.3417 65.5669 79.3419 65.5669 79.3421 65.5669C79.3424 65.5669 79.3426 65.5669 79.3429 65.5669C79.3431 65.5669 79.3434 65.5669 79.3437 65.5669C79.3441 65.5669 79.3444 65.5669 79.3448 65.5669C79.3452 65.5669 79.3456 65.5669 79.346 65.5669C79.3464 65.5669 79.3469 65.5669 79.3473 65.5669C79.3478 65.5669 79.3483 65.5669 79.3489 65.5669C79.3494 65.5669 79.35 65.5669 79.3506 65.5669C79.3512 65.5669 79.3518 65.5669 79.3524 65.5669C79.3531 65.5669 79.3537 65.5669 79.3544 65.5669C79.3551 65.5669 79.3559 65.5669 79.3566 65.5669C79.3574 65.5669 79.3582 65.5669 79.359 65.5669C79.3598 65.5669 79.3606 65.5669 79.3615 65.5669C79.3624 65.5669 79.3633 65.5669 79.3642 65.5669C79.3651 65.5669 79.3661 65.5669 79.367 65.5669C79.368 65.5669 79.369 65.5669 79.3701 65.5669C79.3711 65.5669 79.3722 65.5669 79.3733 65.5669C79.3744 65.5669 79.3755 65.5669 79.3766 65.5669C79.3778 65.5669 79.379 65.5669 79.3802 65.5669C79.3814 65.5669 79.3826 65.5669 79.3839 65.5669C79.3852 65.5669 79.3865 65.5669 79.3878 65.5669C79.3891 65.5669 79.3905 65.5669 79.3919 65.5669C79.3932 65.5669 79.3947 65.5669 79.3961 65.5669C79.3976 65.5669 79.399 65.5669 79.4005 65.5669C79.402 65.5669 79.4036 65.5669 79.4051 65.5669C79.4067 65.5669 79.4083 65.5669 79.4099 65.5669C79.4115 65.5669 79.4132 65.5669 79.4149 65.5669C79.4165 65.5669 79.4183 65.5669 79.42 65.5669C79.4217 65.5669 79.4235 65.5669 79.4253 65.5669C79.4271 65.5669 79.429 65.5669 79.4308 65.5669C79.4327 65.5669 79.4346 65.5669 79.4365 65.5669C79.4384 65.5669 79.4404 65.5669 79.4424 65.5669C79.4444 65.5669 79.4464 65.5669 79.4484 65.5669C79.4505 65.5669 79.4526 65.5669 79.4547 65.5669C79.4568 65.5669 79.4589 65.5669 79.4611 65.5669C79.4633 65.5669 79.4655 65.5669 79.4677 65.5669C79.47 65.5669 79.4722 65.5669 79.4745 65.5669C79.4768 65.5669 79.4792 65.5669 79.4815 65.5669C79.4839 65.5669 79.4863 65.5669 79.4887 65.5669C79.4911 65.5669 79.4936 65.5669 79.4961 65.5669C79.4986 65.5669 79.5011 65.5669 79.5036 65.5669C79.5062 65.5669 79.5088 65.5669 79.5114 65.5669C79.514 65.5669 79.5167 65.5669 79.5194 65.5669C79.522 65.5669 79.5248 65.5669 79.5275 65.5669C79.5302 65.5669 79.533 65.5669 79.5358 65.5669C79.5387 65.5669 79.5415 65.5669 79.5444 65.5669C79.5473 65.5669 79.5502 65.5669 79.5531 65.5669C79.5561 65.5669 79.559 65.5669 79.562 65.5669C79.5651 65.5669 79.5681 65.5669 79.5712 65.5669C79.5743 65.5669 79.5774 65.5669 79.5805 65.5669C79.5837 65.5669 79.5868 65.5669 79.59 65.5669C79.5933 65.5669 79.5965 65.5669 79.5998 65.5669C79.6031 65.5669 79.6064 65.5669 79.6097 65.5669C79.6131 65.5669 79.6164 65.5669 79.6199 65.5669C79.6233 65.5669 79.6267 65.5669 79.6302 65.5669C79.6337 65.5669 79.6372 65.5669 79.6407 65.5669C79.6443 65.5669 79.6479 65.5669 79.6515 65.5669C79.6551 65.5669 79.6588 65.5669 79.6625 65.5669C79.6661 65.5669 79.6699 65.5669 79.6736 65.5669C79.6774 65.5669 79.6812 65.5669 79.685 65.5669C79.6888 65.5669 79.6927 65.5669 79.6966 65.5669C79.7005 65.5669 79.7044 65.5669 79.7084 65.5669C79.7124 65.5669 79.7164 65.5669 79.7204 65.5669C79.7244 65.5669 79.7285 65.5669 79.7326 65.5669C79.7367 65.5669 79.7409 65.5669 79.745 65.5669C79.7492 65.5669 79.7534 65.5669 79.7577 65.5669C79.7619 65.5669 79.7662 65.5669 79.7705 65.5669C79.7749 65.5669 79.7792 65.5669 79.7836 65.5669C79.788 65.5669 79.7924 65.5669 79.7969 65.5669C79.8014 65.5669 79.8059 65.5669 79.8104 65.5669C79.8149 65.5669 79.8195 65.5669 79.8241 65.5669C79.8287 65.5669 79.8334 65.5669 79.8381 65.5669C79.8428 65.5669 79.8475 65.5669 79.8522 65.5669C79.857 65.5669 79.8618 65.5669 79.8666 65.5669C79.8715 65.5669 79.8763 65.5669 79.8812 65.5669C79.8861 65.5669 79.8911 65.5669 79.8961 65.5669C79.901 65.5669 79.906 65.5669 79.9111 65.5669C79.9162 65.5669 79.9212 65.5669 79.9264 65.5669C79.9315 65.5669 79.9367 65.5669 79.9419 65.5669C79.9471 65.5669 79.9523 65.5669 79.9576 65.5669C79.9629 65.5669 79.9682 65.5669 79.9735 65.5669C79.9789 65.5669 79.9843 65.5669 79.9897 65.5669C79.9952 65.5669 80.0006 65.5669 80.0061 65.5669C80.0116 65.5669 80.0172 65.5669 80.0228 65.5669C80.0283 65.5669 80.034 65.5669 80.0396 65.5669C80.0453 65.5669 80.051 65.5669 80.0567 65.5669C80.0625 65.5669 80.0682 65.5669 80.0741 65.5669C80.0799 65.5669 80.0857 65.5669 80.0916 65.5669C80.0975 65.5669 80.1034 65.5669 80.1094 65.5669C80.1154 65.5669 80.1214 65.5669 80.1274 65.5669C80.1335 65.5669 80.1396 65.5669 80.1457 65.5669C80.1518 65.5669 80.158 65.5669 80.1642 65.5669C80.1704 65.5669 80.1766 65.5669 80.1829 65.5669C80.1892 65.5669 80.1955 65.5669 80.2019 65.5669C80.2083 65.5669 80.2147 65.5669 80.2211 65.5669C80.2276 65.5669 80.234 65.5669 80.2406 65.5669C80.2471 65.5669 80.2536 65.5669 80.2602 65.5669C80.2669 65.5669 80.2735 65.5669 80.2802 65.5669C80.2869 65.5669 80.2936 65.5669 80.3004 65.5669C80.3071 65.5669 80.3139 65.5669 80.3208 65.5669C80.3276 65.5669 80.3345 65.5669 80.3414 65.5669C80.3484 65.5669 80.3553 65.5669 80.3623 65.5669C80.3693 65.5669 80.3764 65.5669 80.3835 65.5669C80.3906 65.5669 80.3977 65.5669 80.4049 65.5669C80.4121 65.5669 80.4193 65.5669 80.4265 65.5669C80.4338 65.5669 80.4411 65.5669 80.4484 65.5669C80.4558 65.5669 80.4631 65.5669 80.4706 65.5669C80.478 65.5669 80.4854 65.5669 80.4929 65.5669C80.5005 65.5669 80.508 65.5669 80.5156 65.5669C80.5232 65.5669 80.5308 65.5669 80.5385 65.5669C80.5462 65.5669 80.5539 65.5669 80.5616 65.5669C80.5694 65.5669 80.5772 65.5669 80.585 65.5669C80.5929 65.5669 80.6007 65.5669 80.6087 65.5669C80.6166 65.5669 80.6246 65.5669 80.6326 65.5669C80.6406 65.5669 80.6486 65.5669 80.6567 65.5669C80.6648 65.5669 80.673 65.5669 80.6812 65.5669C80.6893 65.5669 80.6976 65.5669 80.7058 65.5669C80.7141 65.5669 80.7224 65.5669 80.7308 65.5669C80.7391 65.5669 80.7475 65.5669 80.756 65.5669C80.7644 65.5669 80.7729 65.5669 80.7814 65.5669C80.79 65.5669 80.7985 65.5669 80.8071 65.5669C80.8158 65.5669 80.8244 65.5669 80.8331 65.5669C80.8418 65.5669 80.8506 65.5669 80.8594 65.5669C80.8682 65.5669 80.877 65.5669 80.8859 65.5669C80.8947 65.5669 80.9037 65.5669 80.9126 65.5669C80.9216 65.5669 80.9306 65.5669 80.9397 65.5669C80.9487 65.5669 80.9578 65.5669 80.967 65.5669C80.9761 65.5669 80.9853 65.5669 80.9945 65.5669C81.0038 65.5669 81.013 65.5669 81.0224 65.5669C81.0317 65.5669 81.0411 65.5669 81.0505 65.5669C81.0599 65.5669 81.0693 65.5669 81.0788 65.5669C81.0883 65.5669 81.0979 65.5669 81.1075 65.5669C81.1171 65.5669 81.1267 65.5669 81.1364 65.5669C81.1461 65.5669 81.1558 65.5669 81.1656 65.5669C81.1754 65.5669 81.1852 65.5669 81.1951 65.5669C81.2049 65.5669 81.2148 65.5669 81.2248 65.5669C81.2347 65.5669 81.2447 65.5669 81.2548 65.5669C81.2648 65.5669 81.2749 65.5669 81.2851 65.5669C81.2952 65.5669 81.3054 65.5669 81.3156 65.5669C81.3259 65.5669 81.3362 65.5669 81.3465 65.5669C81.3568 65.5669 81.3672 65.5669 81.3776 65.5669C81.388 65.5669 81.3985 65.5669 81.409 65.5669C81.4195 65.5669 81.4301 65.5669 81.4407 65.5669C81.4513 65.5669 81.4619 65.5669 81.4726 65.5669C81.4833 65.5669 81.4941 65.5669 81.5049 65.5669C81.5157 65.5669 81.5265 65.5669 81.5374 65.5669C81.5483 65.5669 81.5592 65.5669 81.5702 65.5669C81.5812 65.5669 81.5922 65.5669 81.6033 65.5669C81.6144 65.5669 81.6255 65.5669 81.6367 65.5669C81.6478 65.5669 81.659 65.5669 81.6703 65.5669C81.6816 65.5669 81.6929 65.5669 81.7043 65.5669C81.7156 65.5669 81.727 65.5669 81.7385 65.5669C81.75 65.5669 81.7615 65.5669 81.773 65.5669C81.7846 65.5669 81.7962 65.5669 81.8078 65.5669C81.8195 65.5669 81.8312 65.5669 81.8429 65.5669C81.8547 65.5669 81.8665 65.5669 81.8783 65.5669C81.8902 65.5669 81.9021 65.5669 81.914 65.5669C81.926 65.5669 81.938 65.5669 81.95 65.5669C81.962 65.5669 81.9741 65.5669 81.9863 65.5669C81.9984 65.5669 82.0106 65.5669 82.0228 65.5669C82.0351 65.5669 82.0474 65.5669 82.0597 65.5669C82.072 65.5669 82.0844 65.5669 82.0969 65.5669C82.1093 65.5669 82.1218 65.5669 82.1343 65.5669C82.1469 65.5669 82.1594 65.5669 82.1721 65.5669C82.1847 65.5669 82.1974 65.5669 82.2101 65.5669C82.2229 65.5669 82.2357 65.5669 82.2485 65.5669C82.2613 65.5669 82.2742 65.5669 82.2871 65.5669C82.3001 65.5669 82.3131 65.5669 82.3261 65.5669C82.3391 65.5669 82.3522 65.5669 82.3654 65.5669C82.3785 65.5669 82.3917 65.5669 82.4049 65.5669C82.4182 65.5669 82.4314 65.5669 82.4448 65.5669C82.4581 65.5669 82.4715 65.5669 82.485 65.5669C82.4984 65.5669 82.5119 65.5669 82.5254 65.5669C82.539 65.5669 82.5526 65.5669 82.5662 65.5669C82.5799 65.5669 82.5936 65.5669 82.6073 65.5669C82.6211 65.5669 82.6349 65.5669 82.6487 65.5669C82.6626 65.5669 82.6765 65.5669 82.6904 65.5669C82.7044 65.5669 82.7184 65.5669 82.7324 65.5669C82.7465 65.5669 82.7606 65.5669 82.7748 65.5669C82.7889 65.5669 82.8032 65.5669 82.8174 65.5669C82.8317 65.5669 82.846 65.5669 82.8604 65.5669C82.8747 65.5669 82.8892 65.5669 82.9036 65.5669C82.9181 65.5669 82.9327 65.5669 82.9472 65.5669C82.9618 65.5669 82.9764 65.5669 82.9911 65.5669C83.0058 65.5669 83.0206 65.5669 83.0353 65.5669C83.0501 65.5669 83.065 65.5669 83.0799 65.5669C83.0948 65.5669 83.1097 65.5669 83.1247 65.5669C83.1397 65.5669 83.1548 65.5669 83.1699 65.5669C83.185 65.5669 83.2002 65.5669 83.2154 65.5669C83.2306 65.5669 83.2459 65.5669 83.2612 65.5669C83.2765 65.5669 83.2919 65.5669 83.3073 65.5669C83.3228 65.5669 83.3382 65.5669 83.3538 65.5669C83.3693 65.5669 83.3849 65.5669 83.4006 65.5669C83.4162 65.5669 83.4319 65.5669 83.4477 65.5669C83.4634 65.5669 83.4792 65.5669 83.4951 65.5669C83.511 65.5669 83.5269 65.5669 83.5428 65.5669C83.5588 65.5669 83.5748 65.5669 83.5909 65.5669C83.607 65.5669 83.6231 65.5669 83.6393 65.5669C83.6555 65.5669 83.6718 65.5669 83.6881 65.5669C83.7044 65.5669 83.7207 65.5669 83.7371 65.5669C83.7535 65.5669 83.77 65.5669 83.7865 65.5669C83.803 65.5669 83.8196 65.5669 83.8362 65.5669C83.8529 65.5669 83.8696 65.5669 83.8863 65.5669C83.903 65.5669 83.9198 65.5669 83.9367 65.5669C83.9535 65.5669 83.9705 65.5669 83.9874 65.5669C84.0044 65.5669 84.0214 65.5669 84.0385 65.5669C84.0555 65.5669 84.0727 65.5669 84.0899 65.5669C84.1071 65.5669 84.1243 65.5669 84.1416 65.5669C84.1589 65.5669 84.1762 65.5669 84.1937 65.5669C84.2111 65.5669 84.2285 65.5669 84.2461 65.5669C84.2636 65.5669 84.2812 65.5669 84.2988 65.5669C84.3164 65.5669 84.3341 65.5669 84.3519 65.5669C84.3696 65.5669 84.3874 65.5669 84.4053 65.5669C84.4232 65.5669 84.4411 65.5669 84.4591 65.5669C84.4771 65.5669 84.4951 65.5669 84.5132 65.5669C84.5313 65.5669 84.5494 65.5669 84.5676 65.5669C84.5858 65.5669 84.6041 65.5669 84.6224 65.5669C84.6407 65.5669 84.6591 65.5669 84.6776 65.5669C84.696 65.5669 84.7145 65.5669 84.733 65.5669C84.7516 65.5669 84.7702 65.5669 84.7889 65.5669C84.8075 65.5669 84.8263 65.5669 84.8451 65.5669C84.8638 65.5669 84.8827 65.5669 84.9016 65.5669C84.9205 65.5669 84.9394 65.5669 84.9585 65.5669C84.9775 65.5669 84.9965 65.5669 85.0157 65.5669C85.0348 65.5669 85.054 65.5669 85.0733 65.5669C85.0925 65.5669 85.1118 65.5669 85.1312 65.5669C85.1505 65.5669 85.17 65.5669 85.1895 65.5669C85.2089 65.5669 85.2285 65.5669 85.2481 65.5669C85.2677 65.5669 85.2874 65.5669 85.3071 65.5669C85.3268 65.5669 85.3466 65.5669 85.3664 65.5669C85.3863 65.5669 85.4062 65.5669 85.4261 65.5669C85.4461 65.5669 85.4661 65.5669 85.4862 65.5669C85.5063 65.5669 85.5264 65.5669 85.5466 65.5669C85.5668 65.5669 85.587 65.5669 85.6074 65.5669C85.6277 65.5669 85.6481 65.5669 85.6685 65.5669C85.6889 65.5669 85.7094 65.5669 85.73 65.5669C85.7505 65.5669 85.7712 65.5669 85.7918 65.5669C85.8125 65.5669 85.8332 65.5669 85.854 65.5669C85.8748 65.5669 85.8957 65.5669 85.9166 65.5669C85.9375 65.5669 85.9585 65.5669 85.9796 65.5669C86.0006 65.5669 86.0217 65.5669 86.0429 65.5669C86.064 65.5669 86.0853 65.5669 86.1065 65.5669C86.1278 65.5669 86.1492 65.5669 86.1706 65.5669C86.192 65.5669 86.2135 65.5669 86.235 65.5669C86.2565 65.5669 86.2781 65.5669 86.2998 65.5669C86.3214 65.5669 86.3431 65.5669 86.3649 65.5669C86.3867 65.5669 86.4085 65.5669 86.4304 65.5669C86.4523 65.5669 86.4743 65.5669 86.4963 65.5669C86.5183 65.5669 86.5404 65.5669 86.5626 65.5669C86.5847 65.5669 86.6069 65.5669 86.6292 65.5669C86.6514 65.5669 86.6738 65.5669 86.6962 65.5669C86.7186 65.5669 86.741 65.5669 86.7636 65.5669C86.7861 65.5669 86.8087 65.5669 86.8313 65.5669C86.8539 65.5669 86.8767 65.5669 86.8994 65.5669C86.9222 65.5669 86.945 65.5669 86.9679 65.5669C86.9908 65.5669 87.0138 65.5669 87.0368 65.5669C87.0598 65.5669 87.0829 65.5669 87.1061 65.5669C87.1292 65.5669 87.1524 65.5669 87.1757 65.5669C87.199 65.5669 87.2223 65.5669 87.2457 65.5669C87.2691 65.5669 87.2926 65.5669 87.3161 65.5669C87.3396 65.5669 87.3632 65.5669 87.3869 65.5669C87.4106 65.5669 87.4343 65.5669 87.4581 65.5669C87.4818 65.5669 87.5057 65.5669 87.5296 65.5669C87.5535 65.5669 87.5775 65.5669 87.6015 65.5669C87.6256 65.5669 87.6497 65.5669 87.6739 65.5669C87.698 65.5669 87.7223 65.5669 87.7466 65.5669C87.7709 65.5669 87.7952 65.5669 87.8197 65.5669C87.8441 65.5669 87.8686 65.5669 87.8931 65.5669C87.9177 65.5669 87.9423 65.5669 87.967 65.5669C87.9917 65.5669 88.0164 65.5669 88.0413 65.5669C88.0661 65.5669 88.091 65.5669 88.1159 65.5669C88.1408 65.5669 88.1659 65.5669 88.1909 65.5669C88.216 65.5669 88.2412 65.5669 88.2664 65.5669C88.2916 65.5669 88.3169 65.5669 88.3422 65.5669C88.3675 65.5669 88.3929 65.5669 88.4184 65.5669C88.4439 65.5669 88.4694 65.5669 88.495 65.5669C88.5206 65.5669 88.5463 65.5669 88.572 65.5669C88.5978 65.5669 88.6236 65.5669 88.6494 65.5669C88.6753 65.5669 88.7012 65.5669 88.7272 65.5669C88.7532 65.5669 88.7793 65.5669 88.8054 65.5669C88.8316 65.5669 88.8578 65.5669 88.884 65.5669C88.9103 65.5669 88.9366 65.5669 88.963 65.5669C88.9894 65.5669 89.0159 65.5669 89.0424 65.5669C89.069 65.5669 89.0956 65.5669 89.1222 65.5669C89.1489 65.5669 89.1756 65.5669 89.2025 65.5669C89.2293 65.5669 89.2561 65.5669 89.2831 65.5669C89.31 65.5669 89.337 65.5669 89.3641 65.5669C89.3911 65.5669 89.4183 65.5669 89.4455 65.5669C89.4727 65.5669 89.5 65.5669 89.5273 65.5669C89.5547 65.5669 89.5821 65.5669 89.6095 65.5669C89.637 65.5669 89.6646 65.5669 89.6922 65.5669C89.7198 65.5669 89.7475 65.5669 89.7752 65.5669C89.803 65.5669 89.8308 65.5669 89.8587 65.5669C89.8866 65.5669 89.9145 65.5669 89.9426 65.5669C89.9706 65.5669 89.9987 65.5669 90.0268 65.5669C90.055 65.5669 90.0832 65.5669 90.1115 65.5669C90.1398 65.5669 90.1682 65.5669 90.1966 65.5669C90.2251 65.5669 90.2536 65.5669 90.2822 65.5669C90.3107 65.5669 90.3394 65.5669 90.3681 65.5669C90.3968 65.5669 90.4256 65.5669 90.4544 65.5669C90.4833 65.5669 90.5122 65.5669 90.5412 65.5669C90.5702 65.5669 90.5993 65.5669 90.6284 65.5669C90.6575 65.5669 90.6867 65.5669 90.716 65.5669C90.7453 65.5669 90.7746 65.5669 90.804 65.5669C90.8334 65.5669 90.8629 65.5669 90.8925 65.5669C90.922 65.5669 90.9516 65.5669 90.9813 65.5669C91.011 65.5669 91.0408 65.5669 91.0706 65.5669C91.1004 65.5669 91.1303 65.5669 91.1603 65.5669C91.1903 65.5669 91.2203 65.5669 91.2504 65.5669C91.2805 65.5669 91.3107 65.5669 91.341 65.5669C91.3712 65.5669 91.4016 65.5669 91.432 65.5669C91.4624 65.5669 91.4928 65.5669 91.5234 65.5669C91.5539 65.5669 91.5845 65.5669 91.6152 65.5669C91.6459 65.5669 91.6766 65.5669 91.7075 65.5669C91.7383 65.5669 91.7692 65.5669 91.8001 65.5669C91.8311 65.5669 91.8621 65.5669 91.8933 65.5669C91.9244 65.5669 91.9555 65.5669 91.9868 65.5669C92.0181 65.5669 92.0494 65.5669 92.0808 65.5669C92.1122 65.5669 92.1436 65.5669 92.1752 65.5669C92.2067 65.5669 92.2383 65.5669 92.27 65.5669C92.3017 65.5669 92.3335 65.5669 92.3653 65.5669C92.3971 65.5669 92.429 65.5669 92.461 65.5669C92.493 65.5669 92.525 65.5669 92.5572 65.5669C92.5893 65.5669 92.6215 65.5669 92.6537 65.5669C92.686 65.5669 92.7184 65.5669 92.7508 65.5669C92.7832 65.5669 92.8157 65.5669 92.8482 65.5669C92.8808 65.5669 92.9134 65.5669 92.9461 65.5669C92.9788 65.5669 93.0116 65.5669 93.0445 65.5669C93.0773 65.5669 93.1102 65.5669 93.1432 65.5669C93.1762 65.5669 93.2093 65.5669 93.2425 65.5669C93.2756 65.5669 93.3088 65.5669 93.3421 65.5669C93.3754 65.5669 93.4088 65.5669 93.4422 65.5669C93.4757 65.5669 93.5092 65.5669 93.5428 65.5669C93.5764 65.5669 93.61 65.5669 93.6438 65.5669C93.6775 65.5669 93.7113 65.5669 93.7452 65.5669C93.7791 65.5669 93.8131 65.5669 93.8471 65.5669C93.8811 65.5669 93.9152 65.5669 93.9494 65.5669C93.9836 65.5669 94.0179 65.5669 94.0522 65.5669C94.0865 65.5669 94.121 65.5669 94.1554 65.5669C94.1899 65.5669 94.2245 65.5669 94.2591 65.5669C94.2938 65.5669 94.3285 65.5669 94.3633 65.5669C94.398 65.5669 94.4329 65.5669 94.4678 65.5669C94.5028 65.5669 94.5378 65.5669 94.5729 65.5669C94.608 65.5669 94.6431 65.5669 94.6784 65.5669C94.7136 65.5669 94.7489 65.5669 94.7843 65.5669C94.8197 65.5669 94.8552 65.5669 94.8907 65.5669C94.9263 65.5669 94.9619 65.5669 94.9976 65.5669C95.0333 65.5669 95.069 65.5669 95.1049 65.5669C95.1407 65.5669 95.1767 65.5669 95.2127 65.5669C95.2487 65.5669 95.2847 65.5669 95.3209 65.5669C95.357 65.5669 95.3933 65.5669 95.4296 65.5669C95.4659 65.5669 95.5023 65.5669 95.5387 65.5669C95.5752 65.5669 95.6117 65.5669 95.6483 65.5669C95.685 65.5669 95.7216 65.5669 95.7584 65.5669C95.7952 65.5669 95.832 65.5669 95.869 65.5669C95.9059 65.5669 95.9429 65.5669 95.98 65.5669C96.017 65.5669 96.0542 65.5669 96.0914 65.5669C96.1287 65.5669 96.166 65.5669 96.2034 65.5669C96.2407 65.5669 96.2782 65.5669 96.3158 65.5669C96.3533 65.5669 96.3909 65.5669 96.4286 65.5669C96.4663 65.5669 96.5041 65.5669 96.542 65.5669C96.5798 65.5669 96.6177 65.5669 96.6558 65.5669C96.6938 65.5669 96.7319 65.5669 96.77 65.5669C96.8082 65.5669 96.8465 65.5669 96.8848 65.5669C96.9231 65.5669 96.9615 65.5669 97 65.5669C97.0385 65.5669 97.077 65.5669 97.1157 65.5669C97.1543 65.5669 97.193 65.5669 97.2318 65.5669C97.2706 65.5669 97.3095 65.5669 97.3485 65.5669C97.3874 65.5669 97.4265 65.5669 97.4656 65.5669C97.5047 65.5669 97.5439 65.5669 97.5832 65.5669C97.6225 65.5669 97.6618 65.5669 97.7013 65.5669C97.7407 65.5669 97.7802 65.5669 97.8198 65.5669C97.8594 65.5669 97.8991 65.5669 97.9388 65.5669C97.9786 65.5669 98.0184 65.5669 98.0583 65.5669C98.0982 65.5669 98.1382 65.5669 98.1783 65.5669C98.2184 65.5669 98.2585 65.5669 98.2988 65.5669C98.339 65.5669 98.3793 65.5669 98.4197 65.5669C98.4601 65.5669 98.5006 65.5669 98.5411 65.5669C98.5817 65.5669 98.6223 65.5669 98.663 65.5669C98.7038 65.5669 98.7446 65.5669 98.7854 65.5669C98.8263 65.5669 98.8673 65.5669 98.9083 65.5669C98.9494 65.5669 98.9905 65.5669 99.0317 65.5669C99.0729 65.5669 99.1142 65.5669 99.1556 65.5669C99.1969 65.5669 99.2384 65.5669 99.2799 65.5669C99.3214 65.5669 99.363 65.5669 99.4047 65.5669C99.4464 65.5669 99.4882 65.5669 99.5301 65.5669C99.5719 65.5669 99.6138 65.5669 99.6559 65.5669C99.6979 65.5669 99.74 65.5669 99.7822 65.5669C99.8244 65.5669 99.8666 65.5669 99.909 65.5669C99.9513 65.5669 99.9937 65.5669 100.036 65.5669C100.079 65.5669 100.121 65.5669 100.164 65.5669C100.207 65.5669 100.249 65.5669 100.292 65.5669C100.335 65.5669 100.378 65.5669 100.421 65.5669C100.464 65.5669 100.507 65.5669 100.55 65.5669C100.594 65.5669 100.637 65.5669 100.68 65.5669C100.723 65.5669 100.767 65.5669 100.81 65.5669C100.854 65.5669 100.898 65.5669 100.941 65.5669C100.985 65.5669 101.029 65.5669 101.072 65.5669C101.116 65.5669 101.16 65.5669 101.204 65.5669C101.248 65.5669 101.292 65.5669 101.336 65.5669C101.381 65.5669 101.425 65.5669 101.469 65.5669C101.514 65.5669 101.558 65.5669 101.603 65.5669C101.647 65.5669 101.692 65.5669 101.736 65.5669C101.781 65.5669 101.826 65.5669 101.871 65.5669C101.915 65.5669 101.96 65.5669 102.005 65.5669C102.05 65.5669 102.096 65.5669 102.141 65.5669C102.186 65.5669 102.231 65.5669 102.277 65.5669C102.322 65.5669 102.367 65.5669 102.413 65.5669C102.458 65.5669 102.504 65.5669 102.55 65.5669C102.595 65.5669 102.641 65.5669 102.687 65.5669C102.733 65.5669 102.779 65.5669 102.825 65.5669C102.871 65.5669 102.917 65.5669 102.963 65.5669C103.009 65.5669 103.056 65.5669 103.102 65.5669C103.148 65.5669 103.195 65.5669 103.242 65.5669C103.288 65.5669 103.335 65.5669 103.381 65.5669C103.428 65.5669 103.475 65.5669 103.522 65.5669C103.569 65.5669 103.616 65.5669 103.663 65.5669C103.71 65.5669 103.757 65.5669 103.804 65.5669C103.851 65.5669 103.899 65.5669 103.946 65.5669C103.994 65.5669 104.041 65.5669 104.089 65.5669C104.136 65.5669 104.184 65.5669 104.232 65.5669C104.279 65.5669 104.327 65.5669 104.375 65.5669C104.423 65.5669 104.471 65.5669 104.519 65.5669C104.567 65.5669 104.616 65.5669 104.664 65.5669C104.712 65.5669 104.761 65.5669 104.809 65.5669C104.857 65.5669 104.906 65.5669 104.955 65.5669C105.003 65.5669 105.052 65.5669 105.101 65.5669C105.15 65.5669 105.198 65.5669 105.247 65.5669C105.296 65.5669 105.345 65.5669 105.395 65.5669C105.444 65.5669 105.493 65.5669 105.542 65.5669C105.592 65.5669 105.641 65.5669 105.691 65.5669C105.74 65.5669 105.79 65.5669 105.839 65.5669C105.889 65.5669 105.939 65.5669 105.989 65.5669C106.039 65.5669 106.089 65.5669 106.139 65.5669C106.189 65.5669 106.239 65.5669 106.289 65.5669C106.339 65.5669 106.39 65.5669 106.44 65.5669C106.49 65.5669 106.541 65.5669 106.591 65.5669C106.642 65.5669 106.693 65.5669 106.743 65.5669C106.794 65.5669 106.845 65.5669 106.896 65.5669C106.947 65.5669 106.998 65.5669 107.049 65.5669C107.1 65.5669 107.151 65.5669 107.203 65.5669C107.254 65.5669 107.305 65.5669 107.357 65.5669C107.408 65.5669 107.46 65.5669 107.511 65.5669C107.563 65.5669 107.615 65.5669 107.667 65.5669C107.718 65.5669 107.77 65.5669 107.822 65.5669C107.874 65.5669 107.926 65.5669 107.979 65.5669C108.031 65.5669 108.083 65.5669 108.135 65.5669C108.188 65.5669 108.24 65.5669 108.293 65.5669C108.345 65.5669 108.398 65.5669 108.451 65.5669C108.503 65.5669 108.556 65.5669 108.609 65.5669C108.662 65.5669 108.715 65.5669 108.768 65.5669C108.821 65.5669 108.875 65.5669 108.928 65.5669V62.7253ZM108.928 62.7253L111.605 63.6773C112.84 60.2046 114.609 56.0536 116.503 51.3929C118.374 46.7899 120.331 41.774 121.831 36.7855C123.327 31.8131 124.414 26.7289 124.468 21.9984C124.521 17.2583 123.537 12.6478 120.652 8.89681L118.4 10.6294L116.147 12.3619C117.998 14.7678 118.83 17.9716 118.785 21.934C118.74 25.9058 117.814 30.412 116.389 35.1484C114.969 39.8686 113.097 44.68 111.239 49.2529C109.403 53.7682 107.542 58.1421 106.25 61.7733L108.928 62.7253ZM108.928 62.7253L108.461 65.5282C108.963 65.612 109.868 65.9363 110.595 66.5801C111.236 67.1492 111.769 67.9796 111.769 69.3557H114.611H117.453C117.453 66.1852 116.091 63.8583 114.365 62.3278C112.723 60.872 110.787 60.1543 109.395 59.9224L108.928 62.7253ZM114.611 69.3557H111.769V89.2469H114.611H117.453V69.3557H114.611ZM114.611 89.2469L112.805 91.4404C115.093 93.325 118.946 97.9858 122.327 104.688C125.681 111.334 128.461 119.776 128.821 129.138L131.661 129.029L134.5 128.92C134.102 118.581 131.042 109.342 127.401 102.127C123.789 94.9685 119.496 89.589 116.417 87.0533L114.611 89.2469ZM131.661 129.029H128.819V207.647H131.661H134.502V129.029H131.661ZM141.133 257.848L138.553 259.039C141.312 265.018 142.174 268.542 143.89 273.566C145.605 278.591 148.042 284.658 153.793 295.203L156.288 293.842L158.782 292.481C153.167 282.187 150.868 276.415 149.268 271.73C147.668 267.045 146.636 262.992 143.713 256.657L141.133 257.848ZM156.288 293.842V291H104.192V293.842V296.683H156.288V293.842ZM137.344 248.773L134.631 249.618C135.077 251.053 135.788 253.056 136.525 254.883C136.894 255.798 137.281 256.697 137.656 257.475C138.004 258.198 138.428 259 138.89 259.593L141.133 257.848L143.376 256.104C143.376 256.104 143.371 256.097 143.36 256.081C143.349 256.066 143.334 256.044 143.316 256.016C143.278 255.957 143.231 255.879 143.174 255.78C143.06 255.578 142.926 255.32 142.775 255.007C142.473 254.38 142.137 253.603 141.796 252.757C141.112 251.063 140.454 249.205 140.057 247.928L137.344 248.773ZM131.661 207.647L128.822 207.785C129.333 218.245 131.653 235.256 134.479 248.951L137.261 248.376L140.044 247.802C137.262 234.315 134.991 217.603 134.499 207.508L131.661 207.647ZM137.261 248.376L134.479 248.951C134.506 249.085 134.534 249.219 134.562 249.352L137.344 248.773L140.126 248.195C140.099 248.064 140.072 247.933 140.044 247.802L137.261 248.376ZM114.611 89.2469V86.4053H89.9839V89.2469V92.0885H114.611V89.2469ZM89.9839 89.2469V86.4053H79.5646V89.2469V92.0885H89.9839V89.2469ZM89.9839 89.2469L87.6195 90.8231C90.4084 95.0065 96.6142 109.586 96.6142 131.871H99.4558H102.297C102.297 108.69 95.8739 92.9592 92.3482 87.6706L89.9839 89.2469ZM99.4558 131.871H96.6142V194.386H99.4558H102.297V131.871H99.4558ZM99.4558 194.386L96.6152 194.459C96.775 200.69 97.3486 210.681 98.5536 220.473C99.7414 230.125 101.593 240.06 104.492 245.858L107.033 244.587L109.575 243.317C107.17 238.506 105.39 229.497 104.194 219.779C103.015 210.201 102.452 200.396 102.297 194.313L99.4558 194.386Z" fill="#B17F7F"/>
<path d="M79.5648 19.1542C72.6187 9.05071 55.1271 -6.79908 40.7297 10.6294C31.2576 22.9429 45.1498 48.5173 50.2016 62.7253M50.2016 62.7253C77.4809 62.7253 80.8278 62.7253 79.5648 62.7253M50.2016 62.7253C48.3072 63.041 44.5184 64.8091 44.5184 69.3557V89.2469M44.5184 89.2469C39.1509 93.6671 28.2266 109.327 27.4688 129.029V207.647C26.9675 217.924 24.6722 234.786 21.8679 248.376C21.8405 248.509 21.8131 248.641 21.7856 248.773C20.9413 251.484 19.0489 256.496 17.9968 257.848C12.3136 270.162 14.208 273.003 2.84163 293.842H54.9376M44.5184 89.2469H69.1455M79.5648 89.2469H69.1455M69.1455 89.2469C65.9882 93.9829 59.6736 109.138 59.6736 131.871V194.386C59.3578 206.7 57.4003 233.979 52.096 244.587" stroke="#B17F7F" stroke-width="5.68319" stroke-linecap="round" stroke-linejoin="round"/>
<path d="M84.3006 293.632C84.3006 296.248 82.1802 298.368 79.5646 298.368C76.949 298.368 74.8286 296.248 74.8286 293.632C74.8286 291.016 76.949 288.896 79.5646 288.896C82.1802 288.896 84.3006 291.016 84.3006 293.632Z" fill="#B17F7F"/>
</svg>
