<svg width="211" height="243" viewBox="0 0 211 243" fill="none" xmlns="http://www.w3.org/2000/svg">
<path d="M149.948 53.3905C164.716 44.3027 166.988 37.4869 166.988 22.7192C164.716 17.0394 159.036 3.40774 141.996 3.40771C122.685 3.40769 109.432 35.9722 104.509 53.3905H122.685M149.948 53.3905H194.251C198.038 53.3905 205.611 55.6625 205.611 64.7502V81.7898C205.232 84.8191 202.657 91.5592 195.387 94.2855H191.979M149.948 53.3905H122.685M122.685 94.2855V53.3905M122.685 94.2855H191.979M122.685 94.2855V209.019M191.979 94.2855V198.795C191.979 202.203 190.162 209.019 182.891 209.019H122.685M122.685 209.019H104.509" stroke="#997D84" stroke-width="6.81583" stroke-linecap="round" stroke-linejoin="round"/>
<path d="M59.0705 53.3905C44.3029 44.3027 42.0309 37.4869 42.0309 22.7192C44.3029 17.0394 49.9827 3.40774 67.0223 3.40771C86.3338 3.40769 99.5869 35.9722 104.509 53.3905H86.3338M59.0705 53.3905H14.7676C10.981 53.3905 3.40789 55.6625 3.40789 64.7502V81.7898C3.78655 84.8191 6.36142 91.5592 13.6316 94.2855H17.0396M59.0705 53.3905H86.3338M86.3338 94.2855V53.3905M86.3338 94.2855H17.0396M86.3338 94.2855V209.019M17.0396 94.2855V198.795C17.0396 202.203 18.8571 209.019 26.1273 209.019H86.3338M86.3338 209.019H104.509" stroke="#997D84" stroke-width="6.81583" stroke-linecap="round" stroke-linejoin="round"/>
</svg>
