<svg width="211" height="165" viewBox="0 0 211 165" fill="none" xmlns="http://www.w3.org/2000/svg">
<path d="M105.777 114.876C105.777 114.876 123.748 111.919 186.532 54.5947C192.977 47.7703 206.095 32.9843 207.005 28.4347M207.005 28.4347V10.2365C206.626 7.96167 204.73 3.41211 200.18 3.41211H105.777M207.005 28.4347V148.998C207.005 152.41 205.64 159.69 200.18 161.509H105.777" stroke="#997D84" stroke-width="6.82434" stroke-linecap="round" stroke-linejoin="round"/>
<path d="M104.64 114.876C104.64 114.876 86.6691 111.919 23.8852 54.5947C17.44 47.7703 4.32209 32.9843 3.41218 28.4347M3.41218 28.4347V10.2365C3.79131 7.96167 5.68696 3.41211 10.2365 3.41211H104.64M3.41218 28.4347V148.998C3.41218 152.41 4.77705 159.69 10.2365 161.509H104.64" stroke="#997D84" stroke-width="6.82434" stroke-linecap="round" stroke-linejoin="round"/>
</svg>
