<svg width="290" height="322" viewBox="0 0 290 322" fill="none" xmlns="http://www.w3.org/2000/svg">
<path d="M146.373 238.694L145.425 194.176M145.425 194.176L188.049 122.189L183.313 84.3006L197.521 74.8286L188.049 47.3599M145.425 194.176L171 54.9375M176.683 216.908H204.152" stroke="#B17F7F" stroke-width="5.68319"/>
<path d="M146.373 237.747L196.574 287.001L224.043 260.48V92.8255V152.499L245.829 233.958H286.558L258.142 60.6207L189.944 29.3632M189.944 29.3632C190.26 35.3621 190.702 50.7699 178.577 56.8319C172.263 55.569 156.981 49.423 146.373 36.5411C157.739 23.2803 171 19.4915 182.366 16.6499C184.892 17.9128 189.186 21.7856 189.944 29.3632Z" stroke="#B17F7F" stroke-width="5.68319"/>
<path d="M143.531 239.093L144.478 194.575M144.478 194.575L101.854 122.588L106.59 84.7L92.3822 75.228L101.854 47.7593M144.478 194.575L118.904 55.3369M113.221 217.308H85.7518" stroke="#B17F7F" stroke-width="5.68319"/>
<path d="M143.531 238.147L93.3293 287.401L65.8605 260.88V93.2254V152.899L44.0749 234.358H3.34536L31.7613 61.0206L99.9597 29.7631M99.9597 29.7631C99.6439 35.762 99.2019 51.1698 111.326 57.2318C117.641 55.9689 132.922 49.8229 143.531 36.941C132.164 23.6802 118.904 19.8914 107.537 17.0498C105.011 18.3127 100.717 22.1855 99.9597 29.7631Z" stroke="#B17F7F" stroke-width="5.68319"/>
<path d="M117.01 19.8912V0M174.789 18.944V0" stroke="#B17F7F" stroke-width="5.68319"/>
</svg>
